<?xml version="1.0" encoding="utf-8"?>
<!DOCTYPE svg PUBLIC "-//W3C//DTD SVG 1.1//EN" "http://www.w3.org/Graphics/SVG/1.1/DTD/svg11.dtd">
<svg xmlns="http://www.w3.org/2000/svg" xmlns:xlink="http://www.w3.org/1999/xlink" version="1.1" viewBox="0 0 512 512" enable-background="new 0 0 512 512" width="512px" height="512px">
  <g>
    <g>
      <path d="m256,51.8c-112.6,0-204.2,91.6-204.2,204.2s91.6,204.2 204.2,204.2 204.2-91.6 204.2-204.2-91.6-204.2-204.2-204.2v-1.42109e-14zm0,449.2c-135.1,0-245-109.9-245-245s109.9-245 245-245 245,109.9 245,245-109.9,245-245,245z" fill="#6f7d9a"/>
      <path d="m327.9,276.4h-71.9c-11.3,0-20.4-9.1-20.4-20.4v-132.2c0-11.3 9.1-20.4 20.4-20.4 11.3,0 20.4,9.1 20.4,20.4v111.8h51.5c11.3,0 20.4,9.1 20.4,20.4s-9.1,20.4-20.4,20.4z" fill="#6f7d9a"/>
    </g>
  </g>
</svg>
